# AST/ASF file generated using VICON BodyLanguage
# -----------------------------------------------
:version 1.10
:name VICON
:units
  mass 1.0
  length 0.45
  angle deg
:documentation
   .ast/.asf automatically generated from VICON data using
   VICON BodyBuilder and BodyLanguage model FoxedUp or BRILLIANT.MOD
:root
   order TX TY TZ RX RY RZ
   axis XYZ
   position 0 0 0  
   orientation 0 0 0 
:bonedata
  begin
     id 1 
     name lhipjoint
     direction 0.624716 -0.669793 0.401383 
     length 2.38238 
     axis 0 0 0  XYZ
  end
  begin
     id 2 
     name lfemur
     direction 0.34202 -0.939693 0  
     length 6.4574  
     axis 0 0 20  XYZ
    dof rx ry rz
    limits (-160.0 20.0)
           (-70.0 70.0)
           (-60.0 70.0)
  end
  begin
     id 3 
     name ltibia
     direction 0.34202 -0.939693 0   
     length 7.68739   
     axis 0 0 20   XYZ
    dof rx
    limits (-10.0 170.0)
  end
  begin
     id 4 
     name lfoot
     direction 0.0681309 -0.187188 0.979959   
     length 2.46615   
     axis -90 7.62852e-016 20   XYZ
    dof rx rz
    limits (-45.0 90.0)
           (-70.0 20.0)
  end
  begin
     id 5 
     name ltoes
     direction 1.53566e-011 -4.21819e-011 1   
     length 1.2376   
     axis -90 7.62852e-016 20   XYZ
    dof rx
    limits (-90.0 20.0)
  end
  begin
     id 6 
     name rhipjoint
     direction -0.644473 -0.655875 0.393043   
     length 2.43293  
     axis 0 0 0  XYZ 
  end
  begin
     id 7 
     name rfemur
     direction -0.34202 -0.939693 0   
     length 6.7025   
     axis 0 0 -20   XYZ
    dof rx ry rz
    limits (-160.0 20.0)
           (-70.0 70.0)
           (-70.0 60.0)
  end
  begin
     id 8 
     name rtibia
     direction -0.34202 -0.939693 0   
     length 7.80547   
     axis 0 0 -20   XYZ
    dof rx
    limits (-10.0 170.0)
 end
 begin
     id 9 
     name rfoot
     direction -0.0756734 -0.207911 0.975216   
     length 2.40315  
     axis -90 -7.62852e-016 -20   XYZ
    dof rx rz
    limits (-45.0 90.0)
           (-20.0 70.0)
  end
  begin
     id 10 
     name rtoes
     direction -1.5353e-011 -4.21879e-011 1   
     length 1.20477   
     axis -90 -7.62852e-016 -20   XYZ
    dof rx
    limits (-90.0 20.0)
  end
  begin
     id 11 
     name lowerback
     direction 0.0160353 0.987463 -0.157037   
     length 2.18572   
     axis 0 0 0   XYZ
    dof rx ry rz
    limits (-20.0 45.0)
           (-30.0 30.0)
           (-30.0 30.0)
  end
  begin
     id 12 
     name upperback
     direction -0.00499661 0.999756 0.0215076   
     length 2.18016   
     axis 0 0 0   XYZ
    dof rx ry rz
    limits (-20.0 45.0)
           (-30.0 30.0)
           (-30.0 30.0)
  end
  begin
     id 13 
     name thorax
     direction -0.00921346 0.995333 0.0960619   
     length 2.24923   
     axis 0 0 0   XYZ
    dof rx ry rz
    limits (-20.0 45.0)
           (-30.0 30.0)
           (-30.0 30.0)
  end
  begin
     id 14 
     name lowerneck
     direction 0.0274184 0.991181 0.12965   
     length 1.70911   
     axis 0 0 0   XYZ
    dof rx ry rz
    limits (-20.0 45.0)
           (-30.0 30.0)
           (-30.0 30.0)
  end
  begin
     id 15 
     name upperneck
     direction 0.0015627 0.999959 -0.00893559   
     length 1.69312   
     axis 0 0 0   XYZ
    dof rx ry rz
    limits (-20.0 45.0)
           (-30.0 30.0)
           (-30.0 30.0)
  end
  begin
     id 16
     name head
     direction -0.00230242 0.999856 -0.0168327  
     length 1.80241  
     axis 0 0 0   XYZ
    dof rx ry rz
    limits (-20.0 45.0)
           (-30.0 30.0)
           (-30.0 30.0)
  end
  begin
     id 17 
     name lclavicle
     direction 0.955523 0.290741 -0.0494489  
     length 3.84275  
     axis 0 0 0   XYZ
    dof ry rz
    limits (-20.0 10.0)
           (0.0 20.0)
  end
  begin
     id 18 
     name lhumerus
     direction 1 -4.48967e-011 -3.18382e-028   
     length 5.17714   
     axis 180 -30 -90   XYZ
    dof rx ry rz
    limits (-60.0 90.0)
           (-90.0 90.0)
           (-90.0 90.0)
  end
  begin
     id 19
     name lradius
     direction 1 -4.48968e-011 -2.22911e-027   
     length 3.43679   
     axis 180 -30 -90   XYZ
    dof rx
    limits (-10.0 170.0)
  end
  begin
     id 20
     name lwrist
     direction 1 -4.48951e-011 -6.32245e-027   
     length 1.7184   
     axis 3.57107e-015 90 90   XYZ
    dof ry
    limits (-180.0 0.0)
 end
  begin
     id 21 
     name lhand
     direction 1 -4.48924e-011 -1.26431e-026   
     length 0.573117   
     axis 8.06912e-015 90 90   XYZ
    dof rx rz
    limits (-90.0 90.0)
           (-45.0 45.0)
  end
  begin
     id 22 
     name lfingers
     direction 1 -4.49001e-011 -2.52965e-026   
     length 0.462062   
     axis 1.61381e-014 90 90   XYZ
    dof rx
    limits (0.0 90.0)
  end
  begin
     id 23
     name lthumb
     direction 0.707107 -6.35008e-011 0.707107   
     length 0.663431   
     axis -90 45 -1.62303e-014   XYZ
    dof rx rz
    limits (-45.0 45.0)
           (-45.0 45.0)
  end
  begin
     id 24 
     name rclavicle
     direction -0.963917 0.256881 -0.0698287   
     length 3.73057  
     axis 0 0 0   XYZ 
    dof ry rz
    limits (-10.0 20.0)
           (-20.0 0.0)
  end
  begin
     id 25 
     name rhumerus
     direction -1 -4.48962e-011 -2.73982e-027  
     length 5.23908   
     axis 180 30 90   XYZ
    dof rx ry rz
    limits (-90.0 60.0)
           (-90.0 90.0)
           (-90.0 90.0)
  end
  begin
     id 26 
     name rradius
     direction -1 -4.48968e-011 -4.33218e-027   
     length 3.46485   
     axis 180 30 90   XYZ
    dof rx
    limits (-10.0 170.0)
  end
  begin
     id 27 
     name rwrist
     direction -1 -4.48989e-011 -6.32372e-027   
     length 1.73243   
     axis 3.57107e-015 -90 -90   XYZ
    dof ry
    limits (-180.0 0.0)
  end
  begin
     id 28
     name rhand
     direction -1 -4.48948e-011 -1.26448e-026   
     length 0.608752   
     axis 8.06912e-015 -90 -90   XYZ
    dof rx rz
    limits (-90.0 90.0)
           (-45.0 45.0)
  end
  begin
     id 29
     name rfingers
     direction -1 -4.48962e-011 -2.52913e-026   
     length 0.490792   
     axis 1.61381e-014 -90 -90   XYZ
    dof rx
    limits (0.0 90.0)
  end
  begin
     id 30
     name rthumb
     direction -0.707107 -6.34878e-011 0.707107   
     length 0.704682   
     axis -90 -45 1.62303e-014   XYZ
    dof rx rz
    limits (-45.0 45.0)
           (-45.0 45.0)
  end
:hierarchy
  begin
    root lhipjoint rhipjoint lowerback
    lhipjoint lfemur
    lfemur ltibia
    ltibia lfoot
    lfoot ltoes
    rhipjoint rfemur
    rfemur rtibia
    rtibia rfoot
    rfoot rtoes
    lowerback upperback
    upperback thorax
    thorax lowerneck lclavicle rclavicle
    lowerneck upperneck
    upperneck head
    lclavicle lhumerus
    lhumerus lradius
    lradius lwrist
    lwrist lhand lthumb
    lhand lfingers
    rclavicle rhumerus
    rhumerus rradius
    rradius rwrist
    rwrist rhand rthumb
    rhand rfingers
  end

#!OML:ASF G:\JayActor3\Patient Classification 1\Patient 1\Session 6\male.ASF
:FULLY-SPECIFIED
:DEGREES
61
root 50.2987 16.0513 17.2918 -178.007 -44.7866 -180.558
lowerback 0.261207 -1.09635 -0.757622
upperback 5.83413 -1.66617 0.110274
thorax 5.918 -0.959231 0.447055
lowerneck -5.1118 -1.32972 1.11629
upperneck 2.59008 -2.05166 3.86211
head 1.70881 -0.945808 0.959326
rclavicle -5.26818e-014 -2.6867e-015
rhumerus -54.6121 30.014 -89.4508
rradius 79.3878
rwrist -8.61862
rhand -7.55123 -2.8931
rfingers 7.12502
rthumb 18.3406 -32.0485
lclavicle -5.26818e-014 -2.6867e-015
lhumerus -51.2894 -26.6876 88.9193
lradius 73.9279
lwrist 27.9314
lhand -15.0382 9.18599
lfingers 7.12502
lthumb 11.1279 38.8709
rfemur -15.4989 4.26961 22.2269
rtibia 37.9068
rfoot -24.7108 -11.9034
rtoes 3.72569
lfemur -5.69926 5.82266 -20.3868
ltibia 22.6181
lfoot -17.362 -0.632218
ltoes 7.17669
62
root 50.2948 16.0533 17.2917 -177.968 -44.6994 -180.572
lowerback 0.195081 -1.10341 -0.821792
upperback 5.82291 -1.67232 0.124515
thorax 5.94653 -0.965255 0.495949
lowerneck -5.13008 -1.30302 1.10321
upperneck 2.67448 -2.01584 3.81871
head 1.73833 -0.926816 0.948997
rclavicle 8.18317e-014 -2.83206e-014
rhumerus -54.6419 29.8131 -89.3887
rradius 79.3475
rwrist -8.61683
rhand -7.47895 -2.87781
rfingers 7.12502
rthumb 18.4101 -32.0266
lclavicle 8.18317e-014 -2.83206e-014
lhumerus -51.3609 -26.4648 88.8595
lradius 73.9524
lwrist 27.861
lhand -14.9596 9.27762
lfingers 7.12502
lthumb 11.2037 38.9585
rfemur -15.5107 4.28162 22.1969
rtibia 37.8737
rfoot -24.6744 -11.8302
rtoes 3.75819
lfemur -5.66573 5.85314 -20.4126
ltibia 22.5344
lfoot -17.3546 -0.569518
ltoes 7.11506
63
root 50.2913 16.0552 17.2915 -177.935 -44.6216 -180.582
lowerback 0.13215 -1.11149 -0.883335
upperback 5.81184 -1.67986 0.137778
thorax 5.97335 -0.971836 0.542359
lowerneck -5.13325 -1.28424 1.10658
upperneck 2.74662 -1.9901 3.76041
head 1.76091 -0.913399 0.930878
rclavicle -2.34447e-014 8.96084e-015
rhumerus -54.6272 29.5646 -89.3192
rradius 79.2448
rwrist -8.61656
rhand -7.41871 -2.88236
rfingers 7.12502
rthumb 18.4681 -32.0257
lclavicle -2.34447e-014 8.96084e-015
lhumerus -51.3859 -26.2263 88.7949
lradius 73.902
lwrist 27.7917
lhand -14.8834 9.36577
lfingers 7.12502
lthumb 11.2772 39.0426
rfemur -15.5195 4.29628 22.1723
rtibia 37.8398
rfoot -24.6468 -11.7594
rtoes 3.82521
lfemur -5.6308 5.89228 -20.4322
ltibia 22.4493
lfoot -17.3424 -0.51967
ltoes 7.02105
64
root 50.2879 16.0574 17.2915 -177.894 -44.5502 -180.593
lowerback 0.0667803 -1.11967 -0.9425
upperback 5.79681 -1.68698 0.147375
thorax 5.99722 -0.977824 0.583671
lowerneck -5.12479 -1.27009 1.12266
upperneck 2.8125 -1.97061 3.69582
head 1.77924 -0.903386 0.908437
rclavicle -1.39776e-014 6.29045e-015
rhumerus -54.5736 29.264 -89.2443
rradius 79.0767
rwrist -8.62183
rhand -7.3667 -2.90313
rfingers 7.12502
rthumb 18.5181 -32.0417
lclavicle -1.39776e-014 6.29045e-015
lhumerus -51.3637 -25.9792 88.7291
lradius 73.7678
lwrist 27.7317
lhand -14.8121 9.4329
lfingers 7.12502
lthumb 11.346 39.106
rfemur -15.5332 4.31064 22.1454
rtibia 37.805
rfoot -24.6245 -11.6864
rtoes 3.91323
lfemur -5.60451 5.93265 -20.4536
ltibia 22.3635
lfoot -17.3171 -0.485774
ltoes 7.0061
65
root 50.2843 16.0594 17.2916 -177.857 -44.4778 -180.605
lowerback 0.00496756 -1.12948 -0.999988
upperback 5.78066 -1.69627 0.156335
thorax 6.01786 -0.984767 0.623371
lowerneck -5.10425 -1.25572 1.14264
upperneck 2.87122 -1.95012 3.62429
head 1.79294 -0.893233 0.883207
rclavicle -9.34286e-014 2.64702e-014
rhumerus -54.4762 28.9257 -89.1611
rradius 78.8298
rwrist -8.63322
rhand -7.33171 -2.92347
rfingers 7.12502
rthumb 18.5518 -32.0588
lclavicle -9.34286e-014 2.64702e-014
lhumerus -51.2971 -25.7051 88.6625
lradius 73.555
lwrist 27.6736
lhand -14.7469 9.50704
lfingers 7.12502
lthumb 11.4089 39.1766
rfemur -15.5431 4.32908 22.1177
rtibia 37.7717
rfoot -24.6086 -11.6091
rtoes 4.0215
lfemur -5.57252 5.97027 -20.4769
ltibia 22.2765
lfoot -17.293 -0.443786
ltoes 6.96925
66
root 50.2805 16.0614 17.2919 -177.829 -44.4026 -180.619
lowerback -0.0431847 -1.13982 -1.05785
upperback 5.76418 -1.70651 0.165351
thorax 6.03036 -0.992274 0.663622
lowerneck -5.07532 -1.23975 1.15886
upperneck 2.92516 -1.92694 3.55519
head 1.80367 -0.881933 0.859505
rclavicle 5.75443e-014 -2.75814e-015
rhumerus -54.3357 28.5456 -89.0687
rradius 78.5021
rwrist -8.65193
rhand -7.32243 -2.94487
rfingers 7.12502
rthumb 18.5607 -32.0794
lclavicle 5.75443e-014 -2.75814e-015
lhumerus -51.1935 -25.3943 88.5959
lradius 73.2623
lwrist 27.6228
lhand -14.7055 9.55107
lfingers 7.12502
lthumb 11.4488 39.2185
rfemur -15.5415 4.34935 22.0879
rtibia 37.7396
rfoot -24.5933 -11.5293
rtoes 4.12014
lfemur -5.52925 5.9969 -20.5024
ltibia 22.1888
lfoot -17.2715 -0.394937
ltoes 6.95037
67
root 50.2765 16.0631 17.2924 -177.801 -44.3285 -180.635
lowerback -0.0852751 -1.15507 -1.11637
upperback 5.74382 -1.72328 0.176369
thorax 6.03555 -1.003 0.706176
lowerneck -5.04457 -1.21926 1.16703
upperneck 2.98338 -1.89716 3.48583
head 1.81551 -0.867371 0.837319
rclavicle 2.46954e-014 -2.03189e-014
rhumerus -54.1578 28.1338 -88.967
rradius 78.0951
rwrist -8.68394
rhand -7.33391 -2.96792
rfingers 7.12502
rthumb 18.5497 -32.1035
lclavicle 2.46954e-014 -2.03189e-014
lhumerus -51.0511 -25.0426 88.5323
lradius 72.8815
lwrist 27.578
lhand -14.693 9.5596
lfingers 7.12502
lthumb 11.4608 39.2263
rfemur -15.5396 4.36612 22.0547
rtibia 37.7097
rfoot -24.5766 -11.4481
rtoes 4.20486
lfemur -5.484 6.0154 -20.5321
ltibia 22.1016
lfoot -17.253 -0.340496
ltoes 6.93418
68
root 50.2723 16.0645 17.2932 -177.78 -44.2537 -180.652
lowerback -0.113375 -1.17309 -1.18082
upperback 5.72227 -1.74411 0.193385
thorax 6.03198 -1.01624 0.758409
lowerneck -5.00953 -1.19838 1.16622
upperneck 3.0433 -1.86567 3.4102
head 1.82718 -0.852158 0.81476
rclavicle 1.39569e-013 -2.3264e-014
rhumerus -53.9434 27.6888 -88.8486
rradius 77.6087
rwrist -8.73225
rhand -7.37756 -2.98533
rfingers 7.12502
rthumb 18.5077 -32.1249
lclavicle 1.39569e-013 -2.3264e-014
lhumerus -50.8714 -24.6523 88.4792
lradius 72.413
lwrist 27.5383
lhand -14.738 9.52334
lfingers 7.12502
lthumb 11.4174 39.1925
rfemur -15.529 4.38435 22.0194
rtibia 37.6804
rfoot -24.5592 -11.366
rtoes 4.27977
lfemur -5.43013 6.02695 -20.5637
ltibia 22.0169
lfoot -17.2391 -0.285222
ltoes 6.94481
69
root 50.2683 16.0657 17.2945 -177.763 -44.1825 -180.672
lowerback -0.12681 -1.19402 -1.24767
upperback 5.69684 -1.76897 0.212383
thorax 6.0162 -1.03156 0.814252
lowerneck -4.98621 -1.17223 1.15574
upperneck 3.12062 -1.82774 3.34177
head 1.84679 -0.833343 0.796311
rclavicle 1.43653e-015 9.93923e-017
rhumerus -53.7033 27.2111 -88.7235
rradius 77.0562
rwrist -8.80781
rhand -7.45419 -3.03211
rfingers 7.12502
rthumb 18.4339 -32.1787
lclavicle 1.43653e-015 9.93923e-017
lhumerus -50.6566 -24.2286 88.4309
lradius 71.857
lwrist 27.5043
lhand -14.8402 9.43675
lfingers 7.12502
lthumb 11.3189 39.1113
rfemur -15.5157 4.39791 21.982
rtibia 37.6527
rfoot -24.5372 -11.2912
rtoes 4.32845
lfemur -5.37399 6.03314 -20.5978
ltibia 21.9347
lfoot -17.225 -0.230041
ltoes 6.97312
